<mxfile host="app.diagrams.net" modified="2020-04-09T09:15:51.471Z" agent="5.0 (Macintosh; Intel Mac OS X 10_14_3) AppleWebKit/537.36 (KHTML, like Gecko) Chrome/80.0.3987.163 Safari/537.36" etag="7oJh4cGOBhT-sMHfdtwr" version="12.9.10" type="github">
  <diagram id="IgT0hcQp_QOIX-tnc_lD" name="Page-1">
    <mxGraphModel dx="1426" dy="794" grid="1" gridSize="10" guides="1" tooltips="1" connect="1" arrows="1" fold="1" page="0" pageScale="1" pageWidth="827" pageHeight="1169" math="0" shadow="0">
      <root>
        <mxCell id="0" />
        <mxCell id="1" parent="0" />
        <mxCell id="10RJ4yVAPqsXpbrOnGpt-8" style="edgeStyle=orthogonalEdgeStyle;rounded=0;orthogonalLoop=1;jettySize=auto;html=1;exitX=1;exitY=0.5;exitDx=0;exitDy=0;entryX=0;entryY=0.5;entryDx=0;entryDy=0;" edge="1" parent="1" source="10RJ4yVAPqsXpbrOnGpt-5" target="10RJ4yVAPqsXpbrOnGpt-7">
          <mxGeometry relative="1" as="geometry" />
        </mxCell>
        <mxCell id="10RJ4yVAPqsXpbrOnGpt-5" value="" style="rounded=1;whiteSpace=wrap;html=1;fillColor=#f5f5f5;strokeColor=#666666;fontColor=#333333;" vertex="1" parent="1">
          <mxGeometry x="80" y="174" width="105" height="190" as="geometry" />
        </mxCell>
        <mxCell id="10RJ4yVAPqsXpbrOnGpt-1" value="quiz" style="html=1;shadow=0;dashed=0;align=center;verticalAlign=middle;shape=mxgraph.arrows2.arrow;dy=0;dx=30;notch=30;" vertex="1" parent="1">
          <mxGeometry x="105.5" y="210" width="70" height="40" as="geometry" />
        </mxCell>
        <mxCell id="10RJ4yVAPqsXpbrOnGpt-3" value="handup" style="html=1;shadow=0;dashed=0;align=center;verticalAlign=middle;shape=mxgraph.arrows2.arrow;dy=0;dx=30;notch=30;" vertex="1" parent="1">
          <mxGeometry x="105.5" y="290" width="70" height="40" as="geometry" />
        </mxCell>
        <mxCell id="10RJ4yVAPqsXpbrOnGpt-4" value="..." style="text;html=1;align=center;verticalAlign=middle;resizable=0;points=[];autosize=1;" vertex="1" parent="1">
          <mxGeometry x="117.5" y="258" width="30" height="20" as="geometry" />
        </mxCell>
        <mxCell id="10RJ4yVAPqsXpbrOnGpt-6" value="MQ" style="text;html=1;align=center;verticalAlign=middle;resizable=0;points=[];autosize=1;" vertex="1" parent="1">
          <mxGeometry x="87.5" y="180" width="30" height="20" as="geometry" />
        </mxCell>
        <mxCell id="10RJ4yVAPqsXpbrOnGpt-10" value="" style="edgeStyle=orthogonalEdgeStyle;rounded=0;orthogonalLoop=1;jettySize=auto;html=1;exitX=1;exitY=0.5;exitDx=0;exitDy=0;entryX=0;entryY=0.5;entryDx=0;entryDy=0;" edge="1" parent="1" source="10RJ4yVAPqsXpbrOnGpt-7" target="10RJ4yVAPqsXpbrOnGpt-9">
          <mxGeometry relative="1" as="geometry">
            <Array as="points">
              <mxPoint x="380" y="269" />
              <mxPoint x="380" y="191" />
            </Array>
          </mxGeometry>
        </mxCell>
        <mxCell id="10RJ4yVAPqsXpbrOnGpt-19" value="" style="edgeStyle=orthogonalEdgeStyle;rounded=0;orthogonalLoop=1;jettySize=auto;html=1;exitX=1;exitY=0.5;exitDx=0;exitDy=0;entryX=0;entryY=0.5;entryDx=0;entryDy=0;" edge="1" parent="1" source="10RJ4yVAPqsXpbrOnGpt-7" target="10RJ4yVAPqsXpbrOnGpt-13">
          <mxGeometry relative="1" as="geometry">
            <Array as="points">
              <mxPoint x="380" y="269" />
              <mxPoint x="380" y="348" />
            </Array>
          </mxGeometry>
        </mxCell>
        <mxCell id="10RJ4yVAPqsXpbrOnGpt-7" value="&lt;font style=&quot;font-size: 14px&quot;&gt;dispatcher&lt;/font&gt;" style="rounded=0;whiteSpace=wrap;html=1;fillColor=#dae8fc;strokeColor=#6c8ebf;" vertex="1" parent="1">
          <mxGeometry x="230" y="243" width="90" height="52" as="geometry" />
        </mxCell>
        <mxCell id="10RJ4yVAPqsXpbrOnGpt-12" style="edgeStyle=orthogonalEdgeStyle;rounded=0;orthogonalLoop=1;jettySize=auto;html=1;exitX=1;exitY=0.5;exitDx=0;exitDy=0;entryX=0;entryY=0.5;entryDx=0;entryDy=0;entryPerimeter=0;" edge="1" parent="1" source="10RJ4yVAPqsXpbrOnGpt-9" target="10RJ4yVAPqsXpbrOnGpt-11">
          <mxGeometry relative="1" as="geometry" />
        </mxCell>
        <mxCell id="10RJ4yVAPqsXpbrOnGpt-9" value="&lt;span style=&quot;font-size: 14px&quot;&gt;processer&lt;/span&gt;" style="rounded=0;whiteSpace=wrap;html=1;fillColor=#e1d5e7;strokeColor=#9673a6;" vertex="1" parent="1">
          <mxGeometry x="470" y="164.5" width="90" height="52" as="geometry" />
        </mxCell>
        <mxCell id="10RJ4yVAPqsXpbrOnGpt-11" value="&lt;font style=&quot;font-size: 14px&quot;&gt;redis&lt;/font&gt;" style="strokeWidth=2;html=1;shape=mxgraph.flowchart.direct_data;whiteSpace=wrap;" vertex="1" parent="1">
          <mxGeometry x="640" y="164.5" width="90" height="52" as="geometry" />
        </mxCell>
        <mxCell id="10RJ4yVAPqsXpbrOnGpt-15" value="读" style="edgeStyle=orthogonalEdgeStyle;rounded=0;orthogonalLoop=1;jettySize=auto;html=1;exitX=0.5;exitY=0;exitDx=0;exitDy=0;entryX=0.5;entryY=1;entryDx=0;entryDy=0;entryPerimeter=0;" edge="1" parent="1" source="10RJ4yVAPqsXpbrOnGpt-13" target="10RJ4yVAPqsXpbrOnGpt-11">
          <mxGeometry relative="1" as="geometry" />
        </mxCell>
        <mxCell id="10RJ4yVAPqsXpbrOnGpt-38" value="写" style="edgeStyle=orthogonalEdgeStyle;rounded=0;orthogonalLoop=1;jettySize=auto;html=1;exitX=1;exitY=0.5;exitDx=0;exitDy=0;entryX=0;entryY=0.5;entryDx=0;entryDy=0;entryPerimeter=0;" edge="1" parent="1" source="10RJ4yVAPqsXpbrOnGpt-13" target="10RJ4yVAPqsXpbrOnGpt-30">
          <mxGeometry relative="1" as="geometry" />
        </mxCell>
        <mxCell id="10RJ4yVAPqsXpbrOnGpt-13" value="&lt;span style=&quot;font-size: 14px&quot;&gt;loader&lt;/span&gt;" style="rounded=0;whiteSpace=wrap;html=1;fillColor=#d5e8d4;strokeColor=#82b366;" vertex="1" parent="1">
          <mxGeometry x="470" y="321.5" width="90" height="52" as="geometry" />
        </mxCell>
        <mxCell id="10RJ4yVAPqsXpbrOnGpt-25" value="" style="rounded=1;whiteSpace=wrap;html=1;fillColor=#f5f5f5;strokeColor=#666666;fontColor=#333333;" vertex="1" parent="1">
          <mxGeometry x="820" y="174" width="105" height="190" as="geometry" />
        </mxCell>
        <mxCell id="10RJ4yVAPqsXpbrOnGpt-26" value="ec" style="html=1;shadow=0;dashed=0;align=center;verticalAlign=middle;shape=mxgraph.arrows2.arrow;dy=0;dx=30;notch=30;" vertex="1" parent="1">
          <mxGeometry x="845.5" y="210" width="70" height="40" as="geometry" />
        </mxCell>
        <mxCell id="10RJ4yVAPqsXpbrOnGpt-27" value="ev" style="html=1;shadow=0;dashed=0;align=center;verticalAlign=middle;shape=mxgraph.arrows2.arrow;dy=0;dx=30;notch=30;" vertex="1" parent="1">
          <mxGeometry x="845.5" y="290" width="70" height="40" as="geometry" />
        </mxCell>
        <mxCell id="10RJ4yVAPqsXpbrOnGpt-28" value="..." style="text;html=1;align=center;verticalAlign=middle;resizable=0;points=[];autosize=1;" vertex="1" parent="1">
          <mxGeometry x="857.5" y="258" width="30" height="20" as="geometry" />
        </mxCell>
        <mxCell id="10RJ4yVAPqsXpbrOnGpt-29" value="MQ" style="text;html=1;align=center;verticalAlign=middle;resizable=0;points=[];autosize=1;" vertex="1" parent="1">
          <mxGeometry x="827.5" y="180" width="30" height="20" as="geometry" />
        </mxCell>
        <mxCell id="10RJ4yVAPqsXpbrOnGpt-39" value="发消息" style="edgeStyle=orthogonalEdgeStyle;rounded=0;orthogonalLoop=1;jettySize=auto;html=1;exitX=1;exitY=0.5;exitDx=0;exitDy=0;exitPerimeter=0;entryX=0;entryY=0.5;entryDx=0;entryDy=0;" edge="1" parent="1" source="10RJ4yVAPqsXpbrOnGpt-30" target="10RJ4yVAPqsXpbrOnGpt-25">
          <mxGeometry relative="1" as="geometry" />
        </mxCell>
        <mxCell id="10RJ4yVAPqsXpbrOnGpt-30" value="&lt;font style=&quot;font-size: 14px&quot;&gt;MySQL&lt;/font&gt;" style="strokeWidth=2;html=1;shape=mxgraph.flowchart.direct_data;whiteSpace=wrap;" vertex="1" parent="1">
          <mxGeometry x="640" y="321.5" width="90" height="52" as="geometry" />
        </mxCell>
        <mxCell id="10RJ4yVAPqsXpbrOnGpt-44" value="userId-roomId&lt;br&gt;业务数据" style="strokeWidth=2;html=1;shape=mxgraph.flowchart.multi-document;whiteSpace=wrap;" vertex="1" parent="1">
          <mxGeometry x="640" y="80" width="100" height="60" as="geometry" />
        </mxCell>
        <mxCell id="10RJ4yVAPqsXpbrOnGpt-48" value="userId-roomId&lt;br&gt;宽表" style="strokeWidth=2;html=1;shape=mxgraph.flowchart.multi-document;whiteSpace=wrap;" vertex="1" parent="1">
          <mxGeometry x="635" y="400" width="100" height="60" as="geometry" />
        </mxCell>
      </root>
    </mxGraphModel>
  </diagram>
</mxfile>
